<svg width="700" height="538" viewBox="0 0 700 538" fill="none" xmlns="http://www.w3.org/2000/svg">
<path d="M0 252.737H61.4127V92.9065L92.5128 198.017H139.753L171.247 92.1191V252.737H232.266V0H157.075L116.133 135.029L75.1913 0H0V252.737Z" fill="white"/>
<path d="M332.622 0H263.729V252.737H332.622V0Z" fill="white"/>
<path d="M432.962 203.528H496.73C496.066 208.278 495.754 213.117 495.754 217.992V252.737H364.069V0H432.962V203.528Z" fill="white"/>
<path d="M525.893 488.653V388.123C543.206 400.712 565.069 404.955 587.283 404.955H594.785V479.598C594.785 485.372 598.066 488.259 604.627 488.259H621.161C627.722 488.259 631.003 485.372 631.003 479.598V404.955H638.348C660.629 404.955 682.557 400.686 699.896 388.008V488.653C699.896 521.196 680.606 537.468 642.026 537.468H583.762C545.183 537.468 525.893 521.196 525.893 488.653Z" fill="white"/>
<path d="M638.348 136.09H631.003V57.8697C631.003 52.0958 627.722 49.2089 621.161 49.2089H604.627C598.066 49.2089 594.785 52.0958 594.785 57.8697V136.09H587.283C565.069 136.09 543.206 140.333 525.893 152.922V48.8153C525.893 16.2718 545.183 0 583.762 0H642.026C680.606 0 699.896 16.2718 699.896 48.8153V153.036C682.557 140.359 660.629 136.09 638.348 136.09Z" fill="white"/>
<path d="M0 537.233H61.4127V377.402L92.5128 482.512H139.753L171.247 376.615V537.233H232.266V284.495H157.075L116.133 419.525L75.1912 284.495H0V537.233Z" fill="white"/>
<path d="M332.622 284.495H263.729V537.233H332.622V284.495Z" fill="white"/>
<path d="M432.962 488.024H511.302V537.233H364.069V284.495H432.962V488.024Z" fill="white"/>
<path fill-rule="evenodd" clip-rule="evenodd" d="M587.283 166.09H638.348C679.368 166.09 699.878 183.391 699.878 217.992V289.149H593.143V316.774C593.143 322.913 596.631 325.982 603.607 325.982H622.024C629 325.982 632.489 322.634 632.489 315.937V304.217H699.878V323.052C699.878 326.892 699.625 330.518 699.12 333.932C699.106 334.027 699.092 334.122 699.077 334.217L699.075 334.234C699.084 334.171 699.094 334.109 699.103 334.046C695.017 361.319 674.766 374.955 638.348 374.955H587.283C546.264 374.955 525.754 357.654 525.754 323.052V217.992C525.754 183.391 546.264 166.09 587.283 166.09ZM593.143 250.64H632.489V224.271C632.489 222.91 632.317 221.699 631.974 220.64C630.77 216.921 627.454 215.062 622.024 215.062H603.607C596.631 215.062 593.143 218.132 593.143 224.271V250.64Z" fill="white"/>
</svg>
