<svg width="223" height="21" viewBox="0 0 223 21" fill="none" xmlns="http://www.w3.org/2000/svg">
<path fill-rule="evenodd" clip-rule="evenodd" d="M0 4.99597C0 2.80531 1.77736 1 3.96983 1H16.0266C17.1192 1 18.1086 1.44828 18.8264 2.16915C19.5405 2.87903 19.9873 3.85477 19.9963 4.93309C19.9997 5.02866 19.9998 5.1243 19.9965 5.21984V17.0133C19.9965 19.204 18.1896 20.9798 15.9972 20.9798C13.8047 20.9798 11.9979 19.204 11.9979 17.0133C11.9979 16.1714 10.9802 15.7497 10.3847 16.3447L6.88959 19.8369C5.32347 21.4017 2.76326 21.3806 1.19714 19.8158C-0.368979 18.251 -0.390021 15.6929 1.1761 14.1281L4.65648 10.6506C5.26886 10.0387 4.83551 8.99193 3.96983 8.99193C1.77736 8.99193 0 7.18662 0 4.99597ZM3.99952 6.99304C2.89515 6.99304 1.99988 6.09851 1.99988 4.99505C1.99988 3.8916 2.89515 2.99707 3.99952 2.99707H9.99846C11.1028 2.99707 11.9981 3.8916 11.9981 4.99505V6.85245C11.9981 8.03355 12.9556 8.99102 14.1367 8.99102H15.9974C17.1018 8.99102 17.997 9.88555 17.997 10.989V16.983C17.997 18.0864 17.1018 18.9809 15.9974 18.9809C14.893 18.9809 13.9978 18.0864 13.9978 16.983V15.1256C13.9978 13.9445 13.0403 12.987 11.8592 12.987H9.99846C8.89409 12.987 7.99882 12.0925 7.99882 10.989V9.13161C7.99882 7.95051 7.04134 6.99304 5.86024 6.99304H3.99952ZM3.99978 14.9853C2.89633 14.9853 2.00014 15.8798 2.00014 16.9832C2.00014 18.0867 2.89633 18.9812 3.99978 18.9812C5.10324 18.9812 5.99943 18.0867 5.99943 16.9832C5.99943 15.8798 5.10324 14.9853 3.99978 14.9853Z" fill="white"/>
<path fill-rule="evenodd" clip-rule="evenodd" d="M18.0725 2.92745L18.0687 2.92365C17.5409 2.39358 16.82 2.06929 16.0266 2.06929H10.9225C12.1655 2.46108 13.0674 3.62231 13.0674 4.99505V6.85245C13.0674 7.443 13.5461 7.92173 14.1367 7.92173H15.9974C17.3725 7.92173 18.5373 8.82602 18.9272 10.073V5.20125L18.9278 5.18267C18.9303 5.11227 18.9302 5.04175 18.9277 4.97127L18.9272 4.95668L18.9271 4.94208C18.9205 4.16005 18.5976 3.44946 18.0725 2.92745ZM12.9285 16.2638V15.1256C12.9285 14.535 12.4497 14.0563 11.8592 14.0563H9.99846C8.30438 14.0563 6.92953 12.6838 6.92953 10.989V9.13161C6.92953 8.54106 6.45079 8.06232 5.86024 8.06232H4.72699C6.01317 8.56585 6.50446 10.3157 5.41226 11.407L2.52259 14.2943C2.961 14.0531 3.46456 13.916 3.99978 13.916C5.69263 13.916 7.06871 15.2881 7.06871 16.9832C7.06871 17.5842 6.89578 18.1445 6.59711 18.6175L9.62887 15.5883C10.7058 14.5122 12.4306 14.9964 12.9285 16.2638ZM18.8264 2.16915C18.1086 1.44828 17.1192 1 16.0266 1H3.96983C1.77736 1 0 2.80531 0 4.99597C0 7.18662 1.77736 8.99193 3.96983 8.99193C4.83551 8.99193 5.26886 10.0387 4.65648 10.6506L1.1761 14.1281C-0.390021 15.6929 -0.368979 18.251 1.19714 19.8158C2.76326 21.3806 5.32347 21.4017 6.88959 19.8369L10.3847 16.3447C10.9802 15.7497 11.9979 16.1714 11.9979 17.0133C11.9979 19.204 13.8047 20.9798 15.9972 20.9798C18.1896 20.9798 19.9965 19.204 19.9965 17.0133V5.21984C19.9998 5.1243 19.9997 5.02866 19.9963 4.93309C19.9873 3.85477 19.5405 2.87903 18.8264 2.16915ZM1.99988 4.99505C1.99988 6.09851 2.89515 6.99304 3.99952 6.99304H5.86024C7.04134 6.99304 7.99882 7.95051 7.99882 9.13161V10.989C7.99882 12.0925 8.89409 12.987 9.99846 12.987H11.8592C13.0403 12.987 13.9978 13.9445 13.9978 15.1256V16.983C13.9978 18.0864 14.893 18.9809 15.9974 18.9809C17.1018 18.9809 17.997 18.0864 17.997 16.983V10.989C17.997 9.88555 17.1018 8.99102 15.9974 8.99102H14.1367C12.9556 8.99102 11.9981 8.03355 11.9981 6.85245V4.99505C11.9981 3.8916 11.1028 2.99707 9.99846 2.99707H3.99952C2.89515 2.99707 1.99988 3.8916 1.99988 4.99505ZM2.00014 16.9832C2.00014 15.8798 2.89633 14.9853 3.99978 14.9853C5.10324 14.9853 5.99943 15.8798 5.99943 16.9832C5.99943 18.0867 5.10324 18.9812 3.99978 18.9812C2.89633 18.9812 2.00014 18.0867 2.00014 16.9832Z" fill="white"/>
<path d="M39.6286 0.912516H40.7086V15.9121H39.6286V13.8522C39.282 14.5521 38.7887 15.1155 38.1487 15.5421C37.5087 15.9621 36.7454 16.1721 35.8587 16.1721C35.1321 16.1721 34.4521 16.0354 33.8188 15.7621C33.1855 15.4888 32.6255 15.1121 32.1388 14.6321C31.6589 14.1455 31.2822 13.5855 31.0089 12.9522C30.7355 12.3189 30.5989 11.6389 30.5989 10.9122C30.5989 10.1856 30.7355 9.50562 31.0089 8.8723C31.2822 8.23232 31.6589 7.67233 32.1388 7.19235C32.6255 6.70569 33.1855 6.3257 33.8188 6.05238C34.4521 5.77905 35.1321 5.64239 35.8587 5.64239C36.7454 5.64239 37.5087 5.85572 38.1487 6.28237C38.7887 6.70236 39.282 7.25901 39.6286 7.95233V0.912516ZM35.8687 15.1121C36.6354 15.1121 37.292 14.9255 37.8387 14.5521C38.392 14.1722 38.8153 13.6622 39.1087 13.0222C39.402 12.3822 39.5486 11.6789 39.5486 10.9122C39.5486 10.1256 39.3986 9.41562 39.0987 8.7823C38.8053 8.14232 38.382 7.63567 37.8287 7.26234C37.282 6.88235 36.6287 6.69236 35.8687 6.69236C35.1021 6.69236 34.4021 6.88235 33.7688 7.26234C33.1421 7.64233 32.6388 8.15232 32.2588 8.7923C31.8855 9.43229 31.6989 10.1389 31.6989 10.9122C31.6989 11.6989 31.8889 12.4089 32.2688 13.0422C32.6555 13.6755 33.1655 14.1788 33.7988 14.5521C34.4321 14.9255 35.1221 15.1121 35.8687 15.1121ZM47.4539 16.1721C46.5339 16.1721 45.6939 15.9354 44.934 15.4621C44.1807 14.9888 43.5773 14.3555 43.124 13.5622C42.6774 12.7622 42.454 11.8789 42.454 10.9122C42.454 10.1789 42.584 9.49562 42.844 8.8623C43.104 8.22232 43.4607 7.66233 43.914 7.18235C44.374 6.69569 44.9073 6.3157 45.5139 6.04238C46.1206 5.76905 46.7672 5.63239 47.4539 5.63239C48.1805 5.63239 48.8505 5.77572 49.4638 6.06238C50.0838 6.34237 50.6171 6.73903 51.0638 7.25234C51.5105 7.76566 51.8538 8.37231 52.0938 9.0723C52.3338 9.76561 52.4438 10.5256 52.4238 11.3522H43.584C43.6573 12.0655 43.8707 12.7055 44.224 13.2722C44.584 13.8322 45.044 14.2755 45.6039 14.6021C46.1639 14.9221 46.7806 15.0855 47.4539 15.0921C48.1939 15.0921 48.8605 14.8988 49.4538 14.5121C50.0472 14.1188 50.5238 13.5822 50.8838 12.9022L51.9738 13.1522C51.5738 14.0388 50.9705 14.7655 50.1638 15.3321C49.3572 15.8921 48.4539 16.1721 47.4539 16.1721ZM43.554 10.4323H51.3338C51.2938 9.74561 51.0938 9.11563 50.7338 8.54231C50.3805 7.96232 49.9172 7.499 49.3438 7.15235C48.7705 6.80569 48.1405 6.63236 47.4539 6.63236C46.7672 6.63236 46.1406 6.80236 45.5739 7.14235C45.0073 7.48234 44.544 7.94233 44.184 8.52231C43.8307 9.09563 43.6207 9.73228 43.554 10.4323ZM57.2969 16.1021C56.7436 16.0954 56.2003 15.9988 55.667 15.8121C55.1403 15.6188 54.6803 15.3621 54.287 15.0421C53.8937 14.7221 53.6203 14.3588 53.467 13.9522L54.417 13.5422C54.5303 13.8422 54.747 14.1122 55.067 14.3522C55.3936 14.5921 55.7603 14.7821 56.1669 14.9221C56.5803 15.0555 56.9836 15.1221 57.3769 15.1221C57.8236 15.1221 58.2435 15.0455 58.6369 14.8921C59.0302 14.7388 59.3502 14.5221 59.5968 14.2422C59.8435 13.9622 59.9668 13.6322 59.9668 13.2522C59.9668 12.8522 59.8368 12.5389 59.5768 12.3122C59.3169 12.0789 58.9835 11.8922 58.5769 11.7522C58.1769 11.6056 57.7636 11.4689 57.3369 11.3422C56.6036 11.1289 55.9669 10.9122 55.427 10.6923C54.8936 10.4656 54.4803 10.1789 54.187 9.83227C53.8937 9.48562 53.747 9.02896 53.747 8.46231C53.747 7.87566 53.917 7.36567 54.257 6.93235C54.597 6.49903 55.0436 6.16571 55.597 5.93238C56.1503 5.69239 56.7436 5.57239 57.3769 5.57239C58.1969 5.57239 58.9402 5.75239 59.6068 6.11238C60.2802 6.47237 60.7535 6.94569 61.0268 7.53234L60.1468 8.05232C60.0135 7.74566 59.8035 7.48234 59.5168 7.26234C59.2302 7.04235 58.9035 6.87235 58.5369 6.75236C58.1702 6.63236 57.8002 6.56903 57.4269 6.56236C56.9603 6.5557 56.5236 6.62903 56.1169 6.78236C55.717 6.92902 55.3936 7.14568 55.147 7.43234C54.9003 7.71233 54.777 8.05232 54.777 8.45231C54.777 8.8523 54.8903 9.15896 55.117 9.37229C55.3436 9.58561 55.6603 9.75894 56.0669 9.89227C56.4736 10.0189 56.9436 10.1689 57.4769 10.3423C58.0969 10.5356 58.6735 10.7522 59.2069 10.9922C59.7468 11.2256 60.1802 11.5189 60.5068 11.8722C60.8401 12.2255 61.0035 12.6822 60.9968 13.2422C60.9968 13.8288 60.8201 14.3388 60.4668 14.7721C60.1202 15.2055 59.6635 15.5388 59.0969 15.7721C58.5369 16.0054 57.9369 16.1154 57.2969 16.1021ZM62.6629 5.91238H63.7428V15.9121H62.6629V5.91238ZM63.2128 4.02243C63.0262 4.02243 62.8662 3.96243 62.7329 3.84244C62.6062 3.71577 62.5429 3.55911 62.5429 3.37245C62.5429 3.18579 62.6062 3.03246 62.7329 2.91246C62.8662 2.7858 63.0262 2.72247 63.2128 2.72247C63.3928 2.72247 63.5462 2.7858 63.6728 2.91246C63.8062 3.03246 63.8728 3.18579 63.8728 3.37245C63.8728 3.55911 63.8095 3.71577 63.6828 3.84244C63.5562 3.96243 63.3995 4.02243 63.2128 4.02243ZM74.1905 5.91238H75.2705V16.3321C75.2705 16.9521 75.1338 17.5354 74.8605 18.0821C74.5938 18.6354 74.2305 19.122 73.7705 19.542C73.3105 19.9687 72.7872 20.302 72.2006 20.542C71.6206 20.7886 71.0206 20.912 70.4006 20.912C69.7073 20.912 69.0373 20.7486 68.3907 20.422C67.744 20.102 67.184 19.672 66.7107 19.132C66.2441 18.592 65.9207 18.0021 65.7407 17.3621L66.7407 16.9021C66.8607 17.4421 67.1074 17.9321 67.4807 18.372C67.854 18.8187 68.2973 19.172 68.8107 19.432C69.3306 19.692 69.8606 19.822 70.4006 19.822C70.8806 19.822 71.3473 19.7287 71.8006 19.542C72.2539 19.3553 72.6606 19.0987 73.0205 18.772C73.3805 18.452 73.6639 18.0821 73.8705 17.6621C74.0838 17.2421 74.1905 16.7988 74.1905 16.3321V13.8822C73.8372 14.5621 73.3472 15.1155 72.7206 15.5421C72.0939 15.9621 71.3639 16.1721 70.5306 16.1721C69.8373 16.1721 69.184 16.0354 68.5707 15.7621C67.9573 15.4888 67.4207 15.1121 66.9607 14.6321C66.5007 14.1455 66.1374 13.5855 65.8707 12.9522C65.6107 12.3189 65.4807 11.6389 65.4807 10.9122C65.4807 10.1856 65.6107 9.50562 65.8707 8.8723C66.1374 8.23232 66.5007 7.67233 66.9607 7.19235C67.4207 6.70569 67.9573 6.3257 68.5707 6.05238C69.184 5.77905 69.8373 5.64239 70.5306 5.64239C71.3639 5.64239 72.0939 5.85238 72.7206 6.27237C73.3472 6.68569 73.8372 7.23901 74.1905 7.93233V5.91238ZM70.5406 15.1121C71.2873 15.1121 71.9272 14.9188 72.4606 14.5321C73.0005 14.1455 73.4139 13.6322 73.7005 12.9922C73.9939 12.3522 74.1405 11.6589 74.1405 10.9122C74.1405 10.1456 73.9939 9.44562 73.7005 8.8123C73.4072 8.17232 72.9905 7.659 72.4506 7.27234C71.9106 6.88569 71.2739 6.69236 70.5406 6.69236C69.8073 6.69236 69.1406 6.88235 68.5407 7.26234C67.9407 7.64233 67.464 8.15232 67.1107 8.7923C66.7574 9.43229 66.5807 10.1389 66.5807 10.9122C66.5807 11.6922 66.7607 12.3989 67.1207 13.0322C67.4807 13.6655 67.9607 14.1722 68.5607 14.5521C69.1606 14.9255 69.8206 15.1121 70.5406 15.1121ZM86.2422 9.76228V15.9121H85.1622V9.93227C85.1622 9.33895 85.0189 8.79897 84.7323 8.31232C84.4456 7.82566 84.0589 7.43901 83.5723 7.15235C83.0856 6.86569 82.5457 6.72236 81.9523 6.72236C81.3657 6.72236 80.829 6.86569 80.3424 7.15235C79.8557 7.43901 79.4657 7.82566 79.1724 8.31232C78.8858 8.79897 78.7424 9.33895 78.7424 9.93227V15.9121H77.6624V5.91238H78.7424V7.44234C79.1024 6.88902 79.5791 6.44903 80.1724 6.12238C80.7657 5.79572 81.4123 5.63239 82.1123 5.63239C82.879 5.63239 83.5723 5.81905 84.1923 6.19237C84.8189 6.55903 85.3156 7.05568 85.6822 7.68233C86.0556 8.30898 86.2422 9.0023 86.2422 9.76228ZM92.4527 16.1721C91.5327 16.1721 90.6927 15.9354 89.9327 15.4621C89.1794 14.9888 88.5761 14.3555 88.1228 13.5622C87.6761 12.7622 87.4528 11.8789 87.4528 10.9122C87.4528 10.1789 87.5828 9.49562 87.8428 8.8623C88.1028 8.22232 88.4594 7.66233 88.9128 7.18235C89.3728 6.69569 89.9061 6.3157 90.5127 6.04238C91.1194 5.76905 91.766 5.63239 92.4527 5.63239C93.1793 5.63239 93.8493 5.77572 94.4626 6.06238C95.0826 6.34237 95.6159 6.73903 96.0626 7.25234C96.5092 7.76566 96.8526 8.37231 97.0925 9.0723C97.3325 9.76561 97.4425 10.5256 97.4225 11.3522H88.5828C88.6561 12.0655 88.8694 12.7055 89.2228 13.2722C89.5828 13.8322 90.0427 14.2755 90.6027 14.6021C91.1627 14.9221 91.7794 15.0855 92.4527 15.0921C93.1927 15.0921 93.8593 14.8988 94.4526 14.5121C95.0459 14.1188 95.5226 13.5822 95.8826 12.9022L96.9726 13.1522C96.5726 14.0388 95.9692 14.7655 95.1626 15.3321C94.356 15.8921 93.4526 16.1721 92.4527 16.1721ZM88.5528 10.4323H96.3326C96.2926 9.74561 96.0926 9.11563 95.7326 8.54231C95.3793 7.96232 94.9159 7.499 94.3426 7.15235C93.7693 6.80569 93.1393 6.63236 92.4527 6.63236C91.766 6.63236 91.1394 6.80236 90.5727 7.14235C90.0061 7.48234 89.5428 7.94233 89.1828 8.52231C88.8294 9.09563 88.6194 9.73228 88.5528 10.4323ZM107.459 0.912516H108.539V15.9121H107.459V13.8522C107.112 14.5521 106.619 15.1155 105.979 15.5421C105.339 15.9621 104.576 16.1721 103.689 16.1721C102.962 16.1721 102.282 16.0354 101.649 15.7621C101.016 15.4888 100.456 15.1121 99.969 14.6321C99.489 14.1455 99.1124 13.5855 98.8391 12.9522C98.5657 12.3189 98.4291 11.6389 98.4291 10.9122C98.4291 10.1856 98.5657 9.50562 98.8391 8.8723C99.1124 8.23232 99.489 7.67233 99.969 7.19235C100.456 6.70569 101.016 6.3257 101.649 6.05238C102.282 5.77905 102.962 5.64239 103.689 5.64239C104.576 5.64239 105.339 5.85572 105.979 6.28237C106.619 6.70236 107.112 7.25901 107.459 7.95233V0.912516ZM103.699 15.1121C104.466 15.1121 105.122 14.9255 105.669 14.5521C106.222 14.1722 106.646 13.6622 106.939 13.0222C107.232 12.3822 107.379 11.6789 107.379 10.9122C107.379 10.1256 107.229 9.41562 106.929 8.7823C106.636 8.14232 106.212 7.63567 105.659 7.26234C105.112 6.88235 104.459 6.69236 103.699 6.69236C102.932 6.69236 102.232 6.88235 101.599 7.26234C100.972 7.64233 100.469 8.15232 100.089 8.7923C99.7157 9.43229 99.529 10.1389 99.529 10.9122C99.529 11.6989 99.719 12.4089 100.099 13.0422C100.486 13.6755 100.996 14.1788 101.629 14.5521C102.262 14.9255 102.952 15.1121 103.699 15.1121ZM120.597 5.63239C121.564 5.63239 122.444 5.86905 123.237 6.34237C124.037 6.81569 124.674 7.45234 125.147 8.25232C125.62 9.04563 125.857 9.92894 125.857 10.9022C125.857 11.6289 125.72 12.3122 125.447 12.9522C125.174 13.5855 124.794 14.1455 124.307 14.6321C123.827 15.1121 123.27 15.4888 122.637 15.7621C122.004 16.0354 121.324 16.1721 120.597 16.1721C119.711 16.1721 118.947 15.9588 118.307 15.5321C117.674 15.1055 117.181 14.5455 116.827 13.8522V15.9121H115.747V0.912516H116.827V7.95233C117.181 7.25901 117.674 6.69903 118.307 6.27237C118.947 5.84572 119.711 5.63239 120.597 5.63239ZM120.587 15.1121C121.361 15.1121 122.061 14.9221 122.687 14.5421C123.32 14.1622 123.824 13.6555 124.197 13.0222C124.577 12.3822 124.767 11.6756 124.767 10.9022C124.767 10.1156 124.574 9.40562 124.187 8.7723C123.8 8.13232 123.29 7.62567 122.657 7.25234C122.031 6.87902 121.341 6.69236 120.587 6.69236C119.821 6.69236 119.161 6.88235 118.607 7.26234C118.061 7.64233 117.641 8.15232 117.347 8.7923C117.054 9.43229 116.907 10.1356 116.907 10.9022C116.907 11.6889 117.054 12.3989 117.347 13.0322C117.647 13.6655 118.071 14.1722 118.617 14.5521C119.171 14.9255 119.827 15.1121 120.587 15.1121ZM133.984 5.91238H135.114L129.654 20.912H128.504L130.324 15.9121L126.734 5.91238H127.914L130.864 14.4221L133.984 5.91238ZM141.919 15.9121V5.91238H144.918V6.54236C145.252 6.2557 145.632 6.03238 146.058 5.87238C146.485 5.71239 146.935 5.63239 147.408 5.63239C148.075 5.63239 148.688 5.78572 149.248 6.09238C149.808 6.39237 150.262 6.79569 150.608 7.30234C150.962 6.79569 151.415 6.39237 151.968 6.09238C152.528 5.78572 153.138 5.63239 153.798 5.63239C154.518 5.63239 155.171 5.80905 155.758 6.16237C156.345 6.50903 156.811 6.97569 157.158 7.56234C157.511 8.14899 157.688 8.8023 157.688 9.52228V15.9121H154.688V10.3623C154.688 10.0489 154.612 9.76561 154.458 9.51228C154.305 9.25896 154.102 9.05563 153.848 8.9023C153.595 8.74897 153.312 8.67231 152.998 8.67231C152.685 8.67231 152.398 8.74897 152.138 8.9023C151.885 9.05563 151.682 9.25896 151.528 9.51228C151.375 9.76561 151.298 10.0489 151.298 10.3623V15.9121H148.298V10.3623C148.298 10.0489 148.222 9.76561 148.068 9.51228C147.922 9.25896 147.718 9.05563 147.458 8.9023C147.205 8.74897 146.922 8.67231 146.608 8.67231C146.302 8.67231 146.018 8.74897 145.758 8.9023C145.505 9.05563 145.302 9.25896 145.148 9.51228C144.995 9.76561 144.918 10.0489 144.918 10.3623V15.9121H141.919ZM166.676 5.91238H169.676V15.9121H166.666L166.526 15.0121C166.279 15.3588 165.966 15.6388 165.586 15.8521C165.213 16.0654 164.776 16.1721 164.276 16.1721C163.529 16.1721 162.829 16.0321 162.176 15.7521C161.529 15.4721 160.959 15.0855 160.466 14.5921C159.973 14.0922 159.586 13.5188 159.306 12.8722C159.033 12.2189 158.896 11.5189 158.896 10.7722C158.896 10.0589 159.026 9.39229 159.286 8.7723C159.546 8.15232 159.909 7.609 160.376 7.14235C160.849 6.66903 161.393 6.29904 162.006 6.03238C162.626 5.76572 163.289 5.63239 163.996 5.63239C164.569 5.63239 165.089 5.75239 165.556 5.99238C166.029 6.22571 166.449 6.51903 166.816 6.87235L166.676 5.91238ZM164.196 13.2922C164.609 13.2922 164.986 13.1855 165.326 12.9722C165.666 12.7589 165.936 12.4722 166.136 12.1122C166.336 11.7522 166.436 11.3522 166.436 10.9122C166.436 10.4723 166.336 10.0723 166.136 9.71228C165.936 9.35229 165.666 9.06563 165.326 8.8523C164.986 8.63897 164.609 8.53231 164.196 8.53231C163.783 8.53231 163.406 8.63897 163.066 8.8523C162.733 9.06563 162.466 9.35229 162.266 9.71228C162.073 10.0723 161.976 10.4723 161.976 10.9122C161.976 11.3522 162.076 11.7522 162.276 12.1122C162.476 12.4722 162.743 12.7589 163.076 12.9722C163.416 13.1855 163.789 13.2922 164.196 13.2922ZM170.99 15.9121L174.65 10.8922L171.03 5.91238H174.73L176.49 8.33232L178.27 5.91238H181.97L178.35 10.8922L182.01 15.9121H178.31L176.49 13.4322L174.69 15.9121H170.99ZM183.421 5.91238H186.421V15.9121H183.421V5.91238ZM184.941 4.87241C184.508 4.87241 184.145 4.72908 183.851 4.44242C183.558 4.15576 183.411 3.7991 183.411 3.37245C183.411 2.95246 183.558 2.59914 183.851 2.31248C184.145 2.01915 184.505 1.87249 184.931 1.87249C185.351 1.87249 185.705 2.01915 185.991 2.31248C186.285 2.59914 186.431 2.95246 186.431 3.37245C186.431 3.7991 186.288 4.15576 186.001 4.44242C185.721 4.72908 185.368 4.87241 184.941 4.87241ZM191.597 20.912H188.597V5.91238H191.597V6.85236C191.91 6.49903 192.274 6.21237 192.687 5.99238C193.1 5.76572 193.577 5.65239 194.117 5.65239C194.85 5.65239 195.533 5.78905 196.167 6.06238C196.8 6.3357 197.357 6.71569 197.837 7.20235C198.323 7.68233 198.7 8.23898 198.967 8.8723C199.24 9.50562 199.377 10.1856 199.377 10.9122C199.377 11.6389 199.24 12.3222 198.967 12.9622C198.7 13.6022 198.323 14.1655 197.837 14.6521C197.357 15.1321 196.8 15.5088 196.167 15.7821C195.533 16.0554 194.85 16.1921 194.117 16.1921C193.577 16.1921 193.1 16.0788 192.687 15.8521C192.274 15.6255 191.91 15.3388 191.597 14.9921V20.912ZM194.077 8.53231C193.67 8.53231 193.297 8.64231 192.957 8.8623C192.623 9.07563 192.357 9.36229 192.157 9.72228C191.957 10.0823 191.857 10.4789 191.857 10.9122C191.857 11.3522 191.957 11.7522 192.157 12.1122C192.357 12.4722 192.623 12.7589 192.957 12.9722C193.297 13.1855 193.67 13.2922 194.077 13.2922C194.49 13.2922 194.867 13.1855 195.207 12.9722C195.547 12.7589 195.817 12.4722 196.017 12.1122C196.217 11.7522 196.317 11.3522 196.317 10.9122C196.317 10.4789 196.217 10.0823 196.017 9.72228C195.817 9.36229 195.547 9.07563 195.207 8.8623C194.867 8.64231 194.49 8.53231 194.077 8.53231ZM210.057 9.52228V15.9121H207.057V10.3623C207.057 10.0489 206.98 9.76561 206.827 9.51228C206.673 9.25229 206.47 9.04896 206.217 8.9023C205.963 8.74897 205.68 8.67231 205.367 8.67231C205.053 8.67231 204.767 8.74897 204.507 8.9023C204.253 9.04896 204.05 9.25229 203.897 9.51228C203.75 9.76561 203.677 10.0489 203.677 10.3623V15.9121H200.677L200.667 0.912516H203.667L203.677 6.54236C204.01 6.2557 204.39 6.03238 204.817 5.87238C205.243 5.71239 205.693 5.63239 206.167 5.63239C206.887 5.63239 207.54 5.80905 208.127 6.16237C208.713 6.50903 209.18 6.97569 209.527 7.56234C209.88 8.14899 210.057 8.8023 210.057 9.52228ZM218.21 5.91238H221.41L215.93 20.912H212.75L214.55 15.9121L210.95 5.91238H214.23L216.05 11.8122L218.21 5.91238Z" fill="white"/>
</svg>
